<svg width="100" height="91" viewBox="0 0 100 91" fill="none" xmlns="http://www.w3.org/2000/svg">
<path d="M1.09448 26.6089H6.8484C10.5877 26.6089 13.3282 28.57 13.3282 32.0364C13.3282 35.4663 10.5877 37.3486 6.8484 37.3486H4.36676V44.9595H1.09448V26.6089ZM6.8484 34.2705C9.10777 34.2705 10.056 33.4911 10.056 32.0364C10.056 30.5424 9.08244 29.687 6.8484 29.687H4.36676V34.2705H6.8484Z" fill="#05092A"/>
<path d="M14.2568 32.166H17.5544V44.9597H14.2568V32.166Z" fill="#05092A"/>
<path d="M34.4953 26.6089V44.9595H31.1977L23.508 32.0646V44.9595H20.3398V26.6089H23.6121L31.3272 39.4391V26.6089H34.4953Z" fill="#05092A"/>
<path d="M36.7772 26.6089H40.0748V36.1809L49.011 26.6089H53.4256L46.0876 34.1298L53.5691 44.9623H49.464L43.8029 36.3385L40.0748 40.196V44.9623H36.7772V26.6089Z" fill="#05092A"/>
<path d="M16.1869 29.9065H15.6242C14.8673 29.9065 14.2568 29.2931 14.2568 28.539V27.9763C14.2568 27.2194 14.8702 26.6089 15.6242 26.6089H16.1869C16.9438 26.6089 17.5544 27.2223 17.5544 27.9763V28.539C17.5544 29.2959 16.941 29.9065 16.1869 29.9065Z" fill="#C732B8"/>
<path d="M0 62.4999L3.27228 61.6699C3.50581 63.9546 5.12928 64.9675 7.07633 64.9675C9.03745 64.9675 10.101 63.9292 10.101 62.6293C10.101 58.8253 1.21831 60.097 1.21831 54.1237C1.21831 50.8767 3.8547 49.0591 6.94691 49.0591C9.20627 49.0591 11.2715 50.0467 12.532 52.2807L9.7915 53.9548C9.15562 52.7084 8.06392 51.9937 6.83155 51.9937C5.53164 51.9937 4.51872 52.7872 4.51872 53.9548C4.51872 57.41 13.4014 56.2395 13.4014 62.3311C13.4014 65.7975 10.5315 67.8909 7.02569 67.8909C3.78155 67.888 0.58524 66.1098 0 62.4999Z" fill="#05092A"/>
<path d="M14.4284 60.5246V49.3291H17.7147V60.1476C17.7147 63.1076 18.4941 64.7592 21.4428 64.7592C24.4028 64.7592 25.1709 63.1104 25.1709 60.1476V49.3291H28.4685V60.3952C28.4685 65.018 26.3639 67.9414 21.4428 67.9414C16.5189 67.9414 14.4284 65.018 14.4284 60.5246Z" fill="#05092A"/>
<path d="M49.1038 49.3291V67.6797H45.9356V53.9773L41.3888 66.0816H38.1953L33.6484 53.9773V67.6797H30.4802V49.3291H34.923L39.7934 62.3816L44.6639 49.3291H49.1038Z" fill="#05092A"/>
<path d="M70.0065 49.3291V67.6797H66.8383V53.9773L62.2915 66.0816H59.098L54.5511 53.9773V67.6797H51.3829V49.3291H55.8257L60.6961 62.3816L65.5666 49.3291H70.0065Z" fill="#05092A"/>
<path d="M72.2883 49.3291H84.4968V52.3538H75.5887V56.9907H83.8862V60.0154H75.5887V64.5622H84.4968V67.6797H72.2883V49.3291Z" fill="#05092A"/>
<path d="M86.1962 49.3291H92.1301C95.56 49.3291 98.4806 51.2902 98.4806 54.7313C98.4806 57.0441 96.9753 58.797 94.896 59.5117L99.9999 67.6797H96.2212L91.7025 59.8353H90.6389H89.4966V67.6797H86.199V49.3291H86.1962ZM92.4312 57.1483C94.1841 57.0695 95.2224 56.1607 95.2224 54.7848C95.2224 53.2654 94.0406 52.2778 92.1583 52.2778H89.5219V57.1483H92.4312Z" fill="#05092A"/>
<path d="M30.4522 75.0207H24.6982V72.072H39.4896V75.0207H33.7498V90.4227H30.4522V75.0207Z" fill="#05092A"/>
<path d="M40.7979 72.0747H53.0063V75.0994H44.0983V79.7363H52.3958V82.761H44.0983V87.3078H53.0063V90.4253H40.7979V72.0747Z" fill="#05092A"/>
<path d="M54.3373 81.2416C54.3373 76.2164 57.1566 71.7737 63.1947 71.7737C66.8299 71.7737 69.7392 73.6166 71.222 77.0465L68.1439 78.2676C67.4545 75.8507 65.5581 74.9165 63.1693 74.9165C59.2865 74.9165 57.6096 77.7077 57.6096 81.1122C57.6096 84.7615 59.2837 87.5526 63.22 87.5526C65.5834 87.5526 67.2069 86.6185 68.1945 84.1509L71.2473 85.3974C69.7927 88.8272 66.8693 90.6842 63.22 90.6842C57.1819 90.6842 54.3373 86.2809 54.3373 81.2416Z" fill="#05092A"/>
<path d="M72.4797 72.0747H75.7773V79.7363H83.8159V72.0747H87.1135V90.4253H83.8159V82.7638H75.7773V90.4253H72.4797V72.0747Z" fill="#05092A"/>
<path d="M2.16089 78.7122C2.16089 76.208 3.55927 73.9824 6.59801 73.9824C9.63676 73.9824 11.0351 76.208 11.0351 78.7122C11.0351 81.2163 9.63676 83.4419 6.59801 83.4419C3.55927 83.4447 2.16089 81.2191 2.16089 78.7122ZM9.2935 78.7122C9.2935 76.9818 8.57038 75.4512 6.59801 75.4512C4.62564 75.4512 3.90254 76.9818 3.90254 78.7122C3.90254 80.451 4.62564 81.9788 6.59801 81.9788C8.57038 81.9788 9.2935 80.451 9.2935 78.7122Z" fill="#05092A"/>
<path d="M12.4082 74.1174H18.9302V75.634H14.0626V77.9581H18.3591V79.4746H14.0626V83.3153H12.411V74.1174H12.4082Z" fill="#05092A"/>
<path d="M1.09372 88.4785H20.1478V86.6018H1.09372V88.4785Z" fill="#05092A"/>
<path d="M23.3927 22.2982H1.09448V0C13.4098 0 23.3927 9.98284 23.3927 22.2982Z" fill="#F1C8ED"/>
<path d="M34.5404 22.2982H12.2422C12.2422 9.98284 22.225 0 34.5404 0V22.2982Z" fill="#C732B8"/>
</svg>
